<svg xmlns="http://www.w3.org/2000/svg" xmlns:xlink="http://www.w3.org/1999/xlink" version="1.1" width="256" height="256" viewBox="0 0 256 256" xml:space="preserve">
<g style="stroke: none; stroke-width: 0; stroke-dasharray: none; stroke-linecap: butt; stroke-linejoin: miter; stroke-miterlimit: 10; fill: none; fill-rule: nonzero; opacity: 1;" transform="translate(1.4065934065934016 1.4065934065934016) scale(2.81 2.81)">
	<path d="M 66.741 70.238 H 46 V 16.239 c 0 -0.552 -0.448 -1 -1 -1 s -1 0.448 -1 1 v 53.999 H 23.258 c -2.637 0 -4.783 2.146 -4.783 4.783 v 4.281 c 0 0.553 0.448 1 1 1 h 51.049 c 0.553 0 1 -0.447 1 -1 v -4.281 C 71.524 72.384 69.379 70.238 66.741 70.238 z M 69.524 78.303 H 20.476 v -3.281 c 0 -1.534 1.249 -2.783 2.783 -2.783 h 43.483 c 1.534 0 2.783 1.249 2.783 2.783 V 78.303 z" style="stroke: none; stroke-width: 1; stroke-dasharray: none; stroke-linecap: butt; stroke-linejoin: miter; stroke-miterlimit: 10; fill: rgb(74,144,226); fill-rule: nonzero; opacity: 1;" transform=" matrix(1 0 0 1 0 0) " stroke-linecap="round"/>
	<path d="M 89.965 41.949 c 0.009 -0.032 -0.002 -0.064 0.003 -0.096 c 0.017 -0.1 0.025 -0.199 0.011 -0.302 c -0.008 -0.055 -0.027 -0.105 -0.043 -0.158 c -0.016 -0.052 -0.018 -0.106 -0.043 -0.157 l -15.291 -30.34 c -0.008 -0.017 -0.023 -0.028 -0.032 -0.044 c -0.023 -0.04 -0.052 -0.074 -0.08 -0.11 c -0.031 -0.038 -0.063 -0.073 -0.1 -0.105 c -0.22 -0.212 -0.523 -0.333 -0.848 -0.277 l -22.351 3.795 C 50.314 11.532 47.823 9.697 45 9.697 c -3.598 0 -6.525 2.927 -6.525 6.525 c 0 0.031 0 0.062 0 0.094 l -22.352 3.796 c -0.201 0.034 -0.364 0.139 -0.502 0.268 c -0.034 0.028 -0.066 0.057 -0.095 0.091 c -0.028 0.034 -0.053 0.068 -0.076 0.105 c -0.016 0.025 -0.038 0.044 -0.052 0.071 L 0.107 50.987 c -0.026 0.051 -0.027 0.105 -0.043 0.158 c -0.017 0.053 -0.035 0.102 -0.043 0.156 c -0.014 0.103 -0.007 0.203 0.011 0.303 c 0.005 0.031 -0.005 0.063 0.003 0.094 c 0.004 0.015 0.01 0.03 0.014 0.045 c 0.001 0.004 0.002 0.008 0.004 0.011 c 2.008 7.293 8.675 12.382 16.237 12.382 s 14.229 -5.089 16.237 -12.382 c 0.001 -0.004 0.002 -0.008 0.004 -0.011 c 0.004 -0.015 0.01 -0.03 0.014 -0.045 c 0.008 -0.031 -0.002 -0.063 0.003 -0.094 c 0.018 -0.101 0.025 -0.2 0.011 -0.303 c -0.008 -0.055 -0.026 -0.104 -0.043 -0.156 c -0.016 -0.053 -0.018 -0.107 -0.043 -0.158 l -14.681 -29.13 l 21.927 -3.724 c 0.543 -0.093 0.909 -0.608 0.817 -1.152 c -0.042 -0.249 -0.063 -0.503 -0.063 -0.759 c 0 -2.495 2.03 -4.525 4.525 -4.525 c 2.141 0 4.005 1.519 4.424 3.56 l 0.028 0.189 c 0.04 0.266 0.185 0.504 0.402 0.662 c 0.217 0.158 0.488 0.221 0.754 0.176 l 21.317 -3.62 L 57.526 41.237 c -0.025 0.05 -0.027 0.104 -0.043 0.157 c -0.017 0.053 -0.036 0.103 -0.043 0.158 c -0.014 0.103 -0.006 0.202 0.011 0.302 c 0.005 0.032 -0.005 0.064 0.003 0.096 c 0.004 0.016 0.01 0.03 0.014 0.046 c 0.001 0.003 0.002 0.006 0.003 0.01 c 2.008 7.293 8.676 12.383 16.238 12.383 s 14.229 -5.09 16.237 -12.383 c 0.001 -0.003 0.002 -0.006 0.003 -0.01 C 89.955 41.979 89.961 41.965 89.965 41.949 z M 20.239 50.438 h -7.49 v -5.679 h 7.49 V 50.438 z M 21.239 42.759 h -9.49 c -0.552 0 -1 0.448 -1 1 v 6.679 H 2.624 L 16.291 23.32 l 13.667 27.118 h -7.718 v -6.679 C 22.239 43.207 21.791 42.759 21.239 42.759 z M 16.291 62.138 c -6.237 0 -11.785 -3.928 -13.921 -9.7 h 9.379 h 9.49 h 8.973 C 28.076 58.21 22.528 62.138 16.291 62.138 z M 81.856 40.687 l -6.924 -9.001 c -0.379 -0.492 -1.207 -0.492 -1.586 0 l -6.924 9.001 h -6.379 l 13.667 -27.118 l 13.668 27.118 H 81.856 z M 79.332 40.687 H 68.945 l 5.193 -6.751 L 79.332 40.687 z M 73.71 52.388 c -6.237 0 -11.785 -3.928 -13.922 -9.701 h 7.126 h 14.449 h 6.268 C 85.494 48.46 79.946 52.388 73.71 52.388 z" style="stroke: none; stroke-width: 1; stroke-dasharray: none; stroke-linecap: butt; stroke-linejoin: miter; stroke-miterlimit: 10; fill: rgb(74,144,226); fill-rule: nonzero; opacity: 1;" transform=" matrix(1 0 0 1 0 0) " stroke-linecap="round"/>
</g>
</svg>