<svg xmlns="http://www.w3.org/2000/svg" xmlns:xlink="http://www.w3.org/1999/xlink" version="1.1" width="256" height="256" viewBox="0 0 256 256" xml:space="preserve">
<g style="stroke: none; stroke-width: 0; stroke-dasharray: none; stroke-linecap: butt; stroke-linejoin: miter; stroke-miterlimit: 10; fill: none; fill-rule: nonzero; opacity: 1;" transform="translate(1.4065934065934016 1.4065934065934016) scale(2.81 2.81)">
	<path d="M 90 72.773 c 0 -7.759 -6.313 -14.071 -14.071 -14.071 c -4.838 0 -9.112 2.454 -11.646 6.182 l -8.79 -6.146 c 0.03 -0.056 0.066 -0.108 0.095 -0.164 c 0.2 -0.39 0.595 -0.632 1.031 -0.632 c 1.744 0 3.163 -1.419 3.163 -3.163 v -3.308 c 0 -1.744 -1.419 -3.163 -3.163 -3.163 c -0.436 0 -0.838 -0.254 -1.049 -0.662 c -0.083 -0.159 -0.169 -0.318 -0.258 -0.471 c -0.091 -0.159 -0.187 -0.315 -0.283 -0.465 c -0.248 -0.388 -0.267 -0.863 -0.049 -1.24 c 0.422 -0.731 0.535 -1.584 0.316 -2.4 c -0.219 -0.816 -0.742 -1.498 -1.474 -1.921 l -2.864 -1.654 c -1.514 -0.873 -3.451 -0.352 -4.321 1.16 c -0.144 0.249 -0.374 0.423 -0.638 0.511 v -9.919 c 0.154 -0.011 0.31 -0.01 0.462 -0.026 c 0.177 -0.018 0.35 -0.056 0.526 -0.081 c 0.303 -0.043 0.608 -0.082 0.904 -0.145 c 0.187 -0.039 0.37 -0.096 0.556 -0.143 c 0.283 -0.072 0.567 -0.141 0.842 -0.229 c 0.179 -0.057 0.353 -0.13 0.53 -0.194 c 0.276 -0.101 0.551 -0.202 0.819 -0.32 c 0.05 -0.022 0.102 -0.037 0.152 -0.059 c 0.033 -0.015 0.058 -0.039 0.088 -0.057 c 4.827 -2.233 8.191 -7.109 8.191 -12.767 c 0 -7.759 -6.313 -14.072 -14.071 -14.072 c -7.759 0 -14.072 6.313 -14.072 14.072 c 0 5.66 3.366 10.537 8.195 12.769 c 0.03 0.017 0.054 0.041 0.086 0.055 c 0.048 0.022 0.099 0.036 0.148 0.058 c 0.272 0.12 0.552 0.223 0.833 0.325 c 0.173 0.063 0.344 0.134 0.518 0.19 c 0.278 0.089 0.564 0.159 0.85 0.231 c 0.183 0.046 0.364 0.103 0.549 0.142 c 0.297 0.062 0.602 0.102 0.905 0.145 c 0.176 0.025 0.349 0.062 0.526 0.08 c 0.152 0.016 0.309 0.015 0.462 0.026 v 9.917 c -0.262 -0.088 -0.495 -0.262 -0.639 -0.51 c -0.422 -0.731 -1.104 -1.255 -1.921 -1.474 c -0.813 -0.218 -1.668 -0.106 -2.399 0.316 l -2.865 1.654 c -0.731 0.422 -1.254 1.104 -1.473 1.92 c -0.218 0.816 -0.106 1.669 0.317 2.4 c 0.218 0.377 0.207 0.838 -0.03 1.205 c -0.209 0.326 -0.402 0.66 -0.577 1.002 c -0.201 0.39 -0.596 0.632 -1.032 0.632 c -1.744 0 -3.163 1.419 -3.163 3.162 v 3.309 c 0 1.743 1.419 3.162 3.163 3.162 c 0.327 0 0.634 0.143 0.857 0.386 l -8.54 6.53 c -2.536 -3.713 -6.8 -6.156 -11.626 -6.156 C 6.313 58.702 0 65.015 0 72.773 c 0 5.657 3.363 10.532 8.188 12.765 c 0.031 0.019 0.058 0.044 0.092 0.059 c 0.052 0.023 0.106 0.039 0.158 0.062 c 0.26 0.114 0.528 0.212 0.797 0.311 c 0.183 0.067 0.364 0.142 0.548 0.201 c 0.271 0.087 0.55 0.155 0.829 0.225 c 0.19 0.048 0.377 0.106 0.568 0.146 c 0.294 0.062 0.595 0.1 0.896 0.143 c 0.178 0.025 0.354 0.063 0.534 0.082 c 0.481 0.05 0.969 0.077 1.462 0.077 s 0.981 -0.027 1.462 -0.077 c 0.18 -0.019 0.356 -0.056 0.534 -0.082 c 0.3 -0.043 0.602 -0.082 0.896 -0.143 c 0.191 -0.04 0.379 -0.098 0.568 -0.146 c 0.278 -0.071 0.557 -0.138 0.829 -0.225 c 0.185 -0.059 0.366 -0.134 0.548 -0.201 c 0.268 -0.099 0.536 -0.197 0.797 -0.311 c 0.052 -0.023 0.106 -0.038 0.158 -0.062 c 0.034 -0.015 0.06 -0.04 0.092 -0.059 c 4.825 -2.233 8.188 -7.108 8.188 -12.765 c 0 -2.213 -0.528 -4.301 -1.442 -6.166 l 8.464 -6.472 c 0.014 0.224 -0.032 0.448 -0.146 0.645 c -0.871 1.509 -0.352 3.447 1.158 4.32 l 2.864 1.653 c 0.731 0.422 1.583 0.533 2.4 0.316 c 0.816 -0.219 1.498 -0.743 1.92 -1.475 c 0.217 -0.377 0.617 -0.601 1.062 -0.577 c 0.383 0.02 0.771 0.02 1.156 0 c 0.432 -0.017 0.841 0.2 1.059 0.578 c 0.423 0.731 1.105 1.255 1.921 1.474 c 0.272 0.072 0.549 0.108 0.823 0.108 c 0.548 0 1.089 -0.144 1.576 -0.425 l 2.864 -1.653 c 0.732 -0.423 1.256 -1.105 1.475 -1.921 c 0.212 -0.795 0.106 -1.623 -0.291 -2.342 l 8.281 5.791 c -0.908 1.86 -1.432 3.939 -1.432 6.144 c 0 5.656 3.362 10.531 8.187 12.765 c 0.032 0.019 0.059 0.044 0.093 0.059 c 0.052 0.024 0.107 0.039 0.159 0.062 c 0.258 0.113 0.524 0.21 0.79 0.308 c 0.185 0.068 0.368 0.144 0.556 0.204 c 0.268 0.086 0.544 0.153 0.819 0.223 c 0.192 0.049 0.382 0.108 0.577 0.149 c 0.291 0.061 0.59 0.099 0.888 0.142 c 0.181 0.026 0.359 0.064 0.541 0.083 c 0.481 0.05 0.969 0.077 1.462 0.077 c 0.494 0 0.981 -0.027 1.462 -0.077 c 0.182 -0.019 0.359 -0.057 0.54 -0.083 c 0.298 -0.043 0.598 -0.081 0.89 -0.142 c 0.193 -0.041 0.382 -0.099 0.573 -0.148 c 0.277 -0.07 0.554 -0.138 0.824 -0.224 c 0.185 -0.06 0.366 -0.134 0.549 -0.202 c 0.268 -0.099 0.536 -0.197 0.797 -0.311 c 0.052 -0.023 0.105 -0.038 0.157 -0.061 c 0.034 -0.015 0.06 -0.04 0.092 -0.059 C 86.637 83.306 90 78.431 90 72.773 z M 11.653 72.11 V 70.1 c 0 -1.334 1.085 -2.419 2.419 -2.419 c 1.333 0 2.418 1.085 2.418 2.419 v 2.011 c 0 1.334 -1.085 2.419 -2.418 2.419 C 12.738 74.529 11.653 73.444 11.653 72.11 z M 18.451 84.01 c -0.145 0.057 -0.291 0.11 -0.438 0.161 c -0.164 0.057 -0.327 0.117 -0.493 0.166 c -0.188 0.056 -0.382 0.101 -0.574 0.148 c -0.191 0.046 -0.38 0.097 -0.573 0.134 c -0.162 0.031 -0.329 0.051 -0.494 0.076 c -0.224 0.034 -0.447 0.072 -0.672 0.093 c -0.114 0.011 -0.23 0.01 -0.345 0.017 c -0.527 0.034 -1.055 0.034 -1.582 0 c -0.114 -0.008 -0.231 -0.007 -0.344 -0.017 c -0.225 -0.021 -0.448 -0.059 -0.672 -0.093 c -0.165 -0.025 -0.331 -0.044 -0.494 -0.076 c -0.193 -0.037 -0.382 -0.088 -0.573 -0.134 c -0.192 -0.047 -0.385 -0.091 -0.573 -0.148 c -0.166 -0.049 -0.33 -0.109 -0.494 -0.166 c -0.147 -0.051 -0.293 -0.104 -0.438 -0.161 v -3.101 c 0 -2.415 1.964 -4.38 4.379 -4.38 s 4.379 1.965 4.379 4.38 V 84.01 z M 20.451 83.003 v -2.093 c 0 -2.417 -1.352 -4.525 -3.339 -5.607 c 0.845 -0.805 1.378 -1.935 1.378 -3.191 V 70.1 c 0 -2.437 -1.982 -4.419 -4.418 -4.419 S 9.653 67.663 9.653 70.1 v 2.011 c 0 1.257 0.533 2.386 1.379 3.191 c -1.987 1.082 -3.339 3.19 -3.339 5.607 v 2.093 C 4.281 80.867 2 77.086 2 72.773 c 0 -6.656 5.416 -12.071 12.072 -12.071 s 12.072 5.415 12.072 12.071 C 26.144 77.086 23.863 80.867 20.451 83.003 z M 43.859 29.241 c -0.217 -0.02 -0.432 -0.058 -0.648 -0.09 c -0.172 -0.026 -0.345 -0.046 -0.514 -0.079 c -0.194 -0.037 -0.385 -0.088 -0.577 -0.135 c -0.189 -0.046 -0.378 -0.09 -0.563 -0.145 c -0.176 -0.052 -0.348 -0.115 -0.521 -0.176 c -0.139 -0.049 -0.278 -0.099 -0.415 -0.152 v -3.101 c 0 -2.415 1.964 -4.379 4.379 -4.379 s 4.38 1.964 4.38 4.379 v 3.101 c -0.135 0.053 -0.272 0.102 -0.409 0.15 c -0.176 0.061 -0.351 0.125 -0.529 0.178 c -0.184 0.055 -0.373 0.098 -0.56 0.144 c -0.192 0.047 -0.384 0.098 -0.578 0.136 c -0.17 0.033 -0.345 0.053 -0.517 0.079 c -0.215 0.032 -0.429 0.069 -0.645 0.089 c -0.152 0.014 -0.307 0.015 -0.46 0.023 c -0.455 0.025 -0.911 0.025 -1.366 0 C 44.163 29.255 44.009 29.255 43.859 29.241 z M 42.581 16.564 v -2.011 c 0 -1.333 1.085 -2.418 2.419 -2.418 s 2.419 1.085 2.419 2.418 v 2.011 c 0 1.334 -1.085 2.419 -2.419 2.419 S 42.581 17.898 42.581 16.564 z M 32.928 17.227 c 0 -6.656 5.416 -12.072 12.072 -12.072 s 12.071 5.416 12.071 12.072 c 0 4.313 -2.28 8.094 -5.691 10.229 v -2.093 c 0 -2.417 -1.352 -4.525 -3.339 -5.607 c 0.845 -0.805 1.378 -1.935 1.378 -3.191 v -2.011 c 0 -2.437 -1.982 -4.418 -4.419 -4.418 s -4.419 1.982 -4.419 4.418 v 2.011 c 0 1.257 0.533 2.386 1.378 3.191 c -1.987 1.082 -3.339 3.19 -3.339 5.607 v 2.094 C 35.209 25.321 32.928 21.539 32.928 17.227 z M 53.365 62.663 c -0.08 0.3 -0.272 0.551 -0.542 0.706 l -2.864 1.653 c -0.271 0.155 -0.586 0.197 -0.882 0.116 c -0.3 -0.08 -0.551 -0.272 -0.706 -0.542 c -0.594 -1.028 -1.697 -1.61 -2.89 -1.575 c -0.32 0.016 -0.641 0.016 -0.96 0 c -1.204 -0.054 -2.299 0.547 -2.893 1.576 c -0.155 0.269 -0.405 0.461 -0.705 0.541 c -0.301 0.081 -0.614 0.039 -0.883 -0.116 l -2.864 -1.652 c -0.555 -0.321 -0.746 -1.034 -0.426 -1.589 c 0.593 -1.027 0.556 -2.3 -0.099 -3.322 c -0.08 -0.124 -0.157 -0.25 -0.23 -0.378 c -0.075 -0.131 -0.147 -0.263 -0.216 -0.396 c -0.557 -1.075 -1.64 -1.743 -2.826 -1.743 c -0.641 0 -1.163 -0.521 -1.163 -1.162 v -3.309 c 0 -0.641 0.522 -1.162 1.164 -1.162 c 1.188 0 2.265 -0.658 2.811 -1.719 c 0.146 -0.284 0.305 -0.562 0.479 -0.831 c 0.644 -1 0.674 -2.261 0.079 -3.29 c -0.32 -0.555 -0.129 -1.268 0.426 -1.588 l 2.864 -1.654 c 0.179 -0.104 0.378 -0.157 0.58 -0.157 c 0.101 0 0.203 0.014 0.303 0.041 c 0.3 0.08 0.551 0.273 0.707 0.542 c 0.594 1.029 1.702 1.643 2.889 1.575 c 0.321 -0.015 0.642 -0.015 0.959 0 c 1.193 0.049 2.299 -0.546 2.893 -1.576 c 0.319 -0.554 1.031 -0.746 1.588 -0.425 l 2.864 1.654 c 0.269 0.155 0.461 0.406 0.541 0.706 c 0.081 0.3 0.039 0.613 -0.116 0.882 c -0.593 1.028 -0.556 2.299 0.1 3.322 c 0.079 0.123 0.155 0.248 0.231 0.381 c 0.074 0.13 0.146 0.26 0.215 0.393 c 0.556 1.075 1.639 1.743 2.825 1.743 c 0.642 0 1.163 0.521 1.163 1.163 v 3.308 c 0 0.642 -0.522 1.163 -1.164 1.163 c -1.188 0 -2.266 0.658 -2.809 1.717 c -0.146 0.284 -0.307 0.563 -0.479 0.832 c -0.646 0.999 -0.676 2.261 -0.081 3.29 C 53.404 62.051 53.446 62.363 53.365 62.663 z M 73.51 72.11 V 70.1 c 0 -1.334 1.085 -2.419 2.419 -2.419 c 1.333 0 2.418 1.085 2.418 2.419 v 2.011 c 0 1.334 -1.085 2.419 -2.418 2.419 C 74.595 74.529 73.51 73.444 73.51 72.11 z M 80.308 84.01 c -0.143 0.056 -0.287 0.108 -0.432 0.159 c -0.167 0.058 -0.332 0.118 -0.501 0.168 c -0.186 0.055 -0.376 0.099 -0.566 0.146 c -0.193 0.047 -0.385 0.098 -0.581 0.136 c -0.159 0.031 -0.323 0.05 -0.484 0.074 c -0.227 0.034 -0.453 0.073 -0.681 0.094 c -0.11 0.01 -0.222 0.01 -0.333 0.017 c -0.526 0.035 -1.054 0.035 -1.58 0.001 c -0.119 -0.008 -0.241 -0.007 -0.359 -0.018 c -0.22 -0.021 -0.439 -0.058 -0.658 -0.091 c -0.17 -0.026 -0.342 -0.045 -0.51 -0.078 c -0.188 -0.036 -0.372 -0.086 -0.558 -0.131 c -0.197 -0.048 -0.396 -0.094 -0.589 -0.152 c -0.162 -0.048 -0.322 -0.107 -0.482 -0.162 c -0.15 -0.052 -0.299 -0.106 -0.446 -0.164 v -3.101 c 0 -2.415 1.965 -4.38 4.38 -4.38 c 2.414 0 4.379 1.965 4.379 4.38 V 84.01 z M 82.308 83.003 v -2.094 c 0 -2.418 -1.352 -4.525 -3.339 -5.607 c 0.845 -0.805 1.378 -1.935 1.378 -3.191 V 70.1 c 0 -2.437 -1.981 -4.419 -4.418 -4.419 S 71.51 67.663 71.51 70.1 v 2.011 c 0 1.257 0.533 2.386 1.378 3.191 c -1.987 1.082 -3.339 3.19 -3.339 5.607 v 2.093 c -3.411 -2.135 -5.692 -5.916 -5.692 -10.229 c 0 -6.656 5.416 -12.071 12.072 -12.071 S 88 66.117 88 72.773 C 88 77.086 85.719 80.867 82.308 83.003 z" style="stroke: none; stroke-width: 1; stroke-dasharray: none; stroke-linecap: butt; stroke-linejoin: miter; stroke-miterlimit: 10; fill: rgb(74,144,226); fill-rule: nonzero; opacity: 1;" transform=" matrix(1 0 0 1 0 0) " stroke-linecap="round"/>
	<path d="M 46.844 46.243 c -1.84 -0.492 -3.759 -0.24 -5.407 0.712 c -1.648 0.952 -2.827 2.488 -3.32 4.326 s -0.24 3.758 0.712 5.406 s 2.488 2.827 4.326 3.32 c 0.614 0.164 1.237 0.245 1.856 0.245 c 1.234 0 2.453 -0.323 3.551 -0.957 c 1.648 -0.952 2.827 -2.488 3.32 -4.326 c 0.492 -1.839 0.239 -3.759 -0.712 -5.406 C 50.218 47.915 48.682 46.736 46.844 46.243 z M 49.949 54.452 c -0.354 1.322 -1.202 2.427 -2.388 3.111 s -2.565 0.868 -3.889 0.512 c -1.322 -0.354 -2.427 -1.202 -3.111 -2.388 c -0.685 -1.186 -0.867 -2.566 -0.513 -3.889 c 0.354 -1.322 1.203 -2.427 2.388 -3.111 c 0.79 -0.456 1.666 -0.689 2.554 -0.689 c 0.445 0 0.894 0.059 1.334 0.178 c 1.323 0.354 2.428 1.202 3.112 2.388 S 50.304 53.13 49.949 54.452 z" style="stroke: none; stroke-width: 1; stroke-dasharray: none; stroke-linecap: butt; stroke-linejoin: miter; stroke-miterlimit: 10; fill: rgb(74,144,226); fill-rule: nonzero; opacity: 1;" transform=" matrix(1 0 0 1 0 0) " stroke-linecap="round"/>
</g>
</svg>