<svg xmlns="http://www.w3.org/2000/svg" xmlns:xlink="http://www.w3.org/1999/xlink" version="1.1" width="256" height="256" viewBox="0 0 256 256" xml:space="preserve">
<g style="stroke: none; stroke-width: 0; stroke-dasharray: none; stroke-linecap: butt; stroke-linejoin: miter; stroke-miterlimit: 10; fill: none; fill-rule: nonzero; opacity: 1;" transform="translate(1.4065934065934016 1.4065934065934016) scale(2.81 2.81)">
	<path d="M 27.74 39.543 c -1.498 0 -2.994 -0.351 -4.402 -1.05 c -0.495 -0.246 -0.697 -0.846 -0.452 -1.34 c 0.246 -0.495 0.846 -0.697 1.34 -0.452 c 2.052 1.018 4.333 1.113 6.422 0.269 c 2.298 -0.928 4.068 -2.856 4.984 -5.428 c 0.186 -0.521 0.755 -0.793 1.277 -0.606 c 0.521 0.186 0.792 0.757 0.606 1.277 c -1.111 3.118 -3.284 5.466 -6.119 6.611 C 30.21 39.304 28.975 39.543 27.74 39.543 z" style="stroke: none; stroke-width: 1; stroke-dasharray: none; stroke-linecap: butt; stroke-linejoin: miter; stroke-miterlimit: 10; fill: rgb(74,144,226); fill-rule: nonzero; opacity: 1;" transform=" matrix(1 0 0 1 0 0) " stroke-linecap="round"/>
	<path d="M 20.78 27.528 c -0.326 0 -0.646 -0.159 -0.838 -0.453 c -2.445 -3.736 -2.833 -7.665 -1.188 -12.008 c 0.196 -0.516 0.775 -0.776 1.29 -0.581 c 0.516 0.196 0.776 0.773 0.581 1.29 c -1.403 3.703 -1.079 7.041 0.991 10.205 c 0.302 0.462 0.173 1.082 -0.29 1.384 C 21.158 27.476 20.968 27.528 20.78 27.528 z" style="stroke: none; stroke-width: 1; stroke-dasharray: none; stroke-linecap: butt; stroke-linejoin: miter; stroke-miterlimit: 10; fill: rgb(74,144,226); fill-rule: nonzero; opacity: 1;" transform=" matrix(1 0 0 1 0 0) " stroke-linecap="round"/>
	<path d="M 26.84 27.465 c -0.461 0 -0.875 -0.32 -0.977 -0.789 c -0.116 -0.54 0.227 -1.072 0.767 -1.188 c 5.825 -1.256 7.87 -5.047 6.436 -11.929 c -0.113 -0.541 0.234 -1.07 0.775 -1.183 c 0.542 -0.115 1.071 0.234 1.183 0.775 c 1.663 7.984 -1.019 12.793 -7.972 14.292 C 26.981 27.458 26.91 27.465 26.84 27.465 z" style="stroke: none; stroke-width: 1; stroke-dasharray: none; stroke-linecap: butt; stroke-linejoin: miter; stroke-miterlimit: 10; fill: rgb(74,144,226); fill-rule: nonzero; opacity: 1;" transform=" matrix(1 0 0 1 0 0) " stroke-linecap="round"/>
	<path d="M 33.986 49.177 c -0.263 0 -0.527 -0.008 -0.792 -0.023 c -0.551 -0.032 -0.972 -0.505 -0.94 -1.056 c 0.032 -0.552 0.495 -0.963 1.057 -0.94 c 3.033 0.172 5.953 -0.839 8.014 -2.783 c 1.861 -1.756 2.845 -4.071 2.845 -6.695 c 0 -0.552 0.448 -1 1 -1 s 1 0.448 1 1 c 0 3.143 -1.233 6.037 -3.473 8.15 C 40.419 47.979 37.28 49.177 33.986 49.177 z" style="stroke: none; stroke-width: 1; stroke-dasharray: none; stroke-linecap: butt; stroke-linejoin: miter; stroke-miterlimit: 10; fill: rgb(74,144,226); fill-rule: nonzero; opacity: 1;" transform=" matrix(1 0 0 1 0 0) " stroke-linecap="round"/>
	<path d="M 25.647 65.952 c -0.097 0 -0.195 -0.014 -0.292 -0.043 c -0.528 -0.161 -0.826 -0.72 -0.665 -1.248 c 1.913 -6.28 -0.03 -10.144 -6.115 -12.158 c -0.524 -0.174 -0.809 -0.739 -0.635 -1.264 c 0.173 -0.524 0.737 -0.808 1.264 -0.635 c 7.148 2.367 9.638 7.292 7.399 14.639 C 26.472 65.675 26.075 65.952 25.647 65.952 z" style="stroke: none; stroke-width: 1; stroke-dasharray: none; stroke-linecap: butt; stroke-linejoin: miter; stroke-miterlimit: 10; fill: rgb(74,144,226); fill-rule: nonzero; opacity: 1;" transform=" matrix(1 0 0 1 0 0) " stroke-linecap="round"/>
	<path d="M 24.399 55.893 c -0.357 0 -0.703 -0.191 -0.883 -0.528 c -1.658 -3.103 -1.746 -6.254 -0.262 -9.368 c 0.239 -0.499 0.837 -0.708 1.333 -0.472 c 0.499 0.238 0.71 0.834 0.473 1.333 c -1.213 2.543 -1.141 5.018 0.22 7.563 c 0.26 0.487 0.077 1.094 -0.411 1.354 C 24.72 55.854 24.559 55.893 24.399 55.893 z" style="stroke: none; stroke-width: 1; stroke-dasharray: none; stroke-linecap: butt; stroke-linejoin: miter; stroke-miterlimit: 10; fill: rgb(74,144,226); fill-rule: nonzero; opacity: 1;" transform=" matrix(1 0 0 1 0 0) " stroke-linecap="round"/>
	<path d="M 40.604 76.013 c -0.164 0 -0.33 -0.04 -0.483 -0.125 c -6.651 -3.681 -8.326 -8.996 -4.978 -15.8 c 0.244 -0.495 0.842 -0.698 1.339 -0.456 c 0.496 0.244 0.7 0.844 0.456 1.339 c -2.868 5.828 -1.549 10.013 4.152 13.167 c 0.483 0.268 0.658 0.876 0.391 1.359 C 41.297 75.826 40.956 76.013 40.604 76.013 z" style="stroke: none; stroke-width: 1; stroke-dasharray: none; stroke-linecap: butt; stroke-linejoin: miter; stroke-miterlimit: 10; fill: rgb(74,144,226); fill-rule: nonzero; opacity: 1;" transform=" matrix(1 0 0 1 0 0) " stroke-linecap="round"/>
	<path d="M 34.614 80.061 c -0.198 0 -0.398 -0.059 -0.572 -0.181 c -0.453 -0.316 -0.563 -0.94 -0.246 -1.393 c 1.588 -2.27 1.901 -4.72 0.957 -7.49 c -0.178 -0.522 0.101 -1.091 0.624 -1.269 c 0.522 -0.182 1.091 0.101 1.269 0.624 c 1.149 3.368 0.741 6.491 -1.211 9.281 C 35.24 79.912 34.929 80.061 34.614 80.061 z" style="stroke: none; stroke-width: 1; stroke-dasharray: none; stroke-linecap: butt; stroke-linejoin: miter; stroke-miterlimit: 10; fill: rgb(74,144,226); fill-rule: nonzero; opacity: 1;" transform=" matrix(1 0 0 1 0 0) " stroke-linecap="round"/>
	<path d="M 16.003 64.786 c -1.714 0 -3.419 -0.71 -5.092 -2.126 c -0.422 -0.357 -0.474 -0.988 -0.117 -1.41 c 0.356 -0.423 0.988 -0.472 1.409 -0.117 c 1.876 1.588 3.666 2.021 5.477 1.326 c 0.512 -0.195 1.094 0.059 1.292 0.574 c 0.199 0.516 -0.059 1.095 -0.574 1.293 C 17.599 64.633 16.8 64.786 16.003 64.786 z" style="stroke: none; stroke-width: 1; stroke-dasharray: none; stroke-linecap: butt; stroke-linejoin: miter; stroke-miterlimit: 10; fill: rgb(74,144,226); fill-rule: nonzero; opacity: 1;" transform=" matrix(1 0 0 1 0 0) " stroke-linecap="round"/>
	<path d="M 12.425 39.571 c -0.307 0 -0.61 -0.141 -0.806 -0.406 c -0.328 -0.445 -0.233 -1.071 0.211 -1.398 c 1.245 -0.918 2.516 -1.57 3.778 -1.938 c 0.533 -0.153 1.086 0.15 1.24 0.68 c 0.155 0.53 -0.15 1.085 -0.68 1.24 c -1.037 0.302 -2.097 0.85 -3.151 1.628 C 12.839 39.507 12.631 39.571 12.425 39.571 z" style="stroke: none; stroke-width: 1; stroke-dasharray: none; stroke-linecap: butt; stroke-linejoin: miter; stroke-miterlimit: 10; fill: rgb(74,144,226); fill-rule: nonzero; opacity: 1;" transform=" matrix(1 0 0 1 0 0) " stroke-linecap="round"/>
	<path d="M 37.466 54.997 c -0.425 0 -0.82 -0.273 -0.954 -0.701 c -1.015 -3.244 0.228 -6.967 2.828 -8.476 c 0.477 -0.277 1.09 -0.115 1.367 0.363 c 0.277 0.478 0.114 1.09 -0.363 1.367 c -1.795 1.041 -2.657 3.799 -1.922 6.147 c 0.165 0.527 -0.129 1.088 -0.656 1.253 C 37.666 54.982 37.565 54.997 37.466 54.997 z" style="stroke: none; stroke-width: 1; stroke-dasharray: none; stroke-linecap: butt; stroke-linejoin: miter; stroke-miterlimit: 10; fill: rgb(74,144,226); fill-rule: nonzero; opacity: 1;" transform=" matrix(1 0 0 1 0 0) " stroke-linecap="round"/>
	<path d="M 34.165 21.206 c -0.173 0 -0.349 -0.045 -0.508 -0.14 c -0.476 -0.281 -0.633 -0.895 -0.351 -1.37 c 0.943 -1.594 2.519 -3.736 5.298 -3.941 c 0.555 -0.052 1.03 0.373 1.071 0.923 c 0.041 0.551 -0.373 1.03 -0.923 1.071 c -1.424 0.105 -2.572 1.02 -3.725 2.966 C 34.84 21.03 34.507 21.206 34.165 21.206 z" style="stroke: none; stroke-width: 1; stroke-dasharray: none; stroke-linecap: butt; stroke-linejoin: miter; stroke-miterlimit: 10; fill: rgb(74,144,226); fill-rule: nonzero; opacity: 1;" transform=" matrix(1 0 0 1 0 0) " stroke-linecap="round"/>
	<path d="M 45.17 80.291 c -0.552 0 -1 -0.447 -1 -1 L 44.169 8.688 c 0 -0.552 0.448 -1 1 -1 s 1 0.448 1 1 l 0.001 70.604 C 46.17 79.844 45.722 80.291 45.17 80.291 z" style="stroke: none; stroke-width: 1; stroke-dasharray: none; stroke-linecap: butt; stroke-linejoin: miter; stroke-miterlimit: 10; fill: rgb(74,144,226); fill-rule: nonzero; opacity: 1;" transform=" matrix(1 0 0 1 0 0) " stroke-linecap="round"/>
	<path d="M 24.267 83.366 c -8.065 0 -14.627 -7.197 -14.627 -16.045 c 0 -1.764 0.261 -3.496 0.776 -5.159 c -2.844 -3.016 -4.464 -7.184 -4.464 -11.537 c 0 -4.781 1.878 -9.197 5.181 -12.253 c -1.462 -2.552 -2.23 -5.478 -2.23 -8.515 c 0 -6.883 4.093 -13.068 10.014 -15.226 c 2.298 -5.957 7.535 -9.777 13.465 -9.777 c 1.815 0 3.608 0.375 5.328 1.113 c 0.508 0.218 0.742 0.806 0.524 1.313 c -0.218 0.507 -0.807 0.742 -1.313 0.524 c -1.469 -0.631 -2.996 -0.951 -4.539 -0.951 c -5.221 0 -9.833 3.494 -11.749 8.902 l -0.165 0.465 l -0.47 0.152 c -5.355 1.734 -9.095 7.279 -9.095 13.484 c 0 2.95 0.817 5.776 2.362 8.172 l 0.482 0.747 l -0.686 0.566 c -3.247 2.681 -5.109 6.794 -5.109 11.283 c 0 4.039 1.568 7.886 4.304 10.556 l 0.456 0.445 l -0.21 0.602 c -0.571 1.63 -0.861 3.344 -0.861 5.094 c 0 7.744 5.665 14.045 12.627 14.045 c 0.987 0 1.978 -0.131 2.946 -0.389 c 0.536 -0.14 1.082 0.176 1.224 0.71 c 0.142 0.533 -0.175 1.081 -0.709 1.224 C 26.591 83.213 25.427 83.366 24.267 83.366 z" style="stroke: none; stroke-width: 1; stroke-dasharray: none; stroke-linecap: butt; stroke-linejoin: miter; stroke-miterlimit: 10; fill: rgb(74,144,226); fill-rule: nonzero; opacity: 1;" transform=" matrix(1 0 0 1 0 0) " stroke-linecap="round"/>
	<path d="M 45.17 9.688 c -0.552 0 -1 -0.448 -1 -1 C 44.17 5 41.495 2 38.207 2 c -2.453 0 -4.626 1.651 -5.539 4.207 c -0.186 0.52 -0.758 0.792 -1.278 0.605 c -0.521 -0.186 -0.792 -0.758 -0.606 -1.278 C 31.985 2.172 34.898 0 38.207 0 c 4.391 0 7.963 3.897 7.963 8.688 C 46.17 9.24 45.722 9.688 45.17 9.688 z" style="stroke: none; stroke-width: 1; stroke-dasharray: none; stroke-linecap: butt; stroke-linejoin: miter; stroke-miterlimit: 10; fill: rgb(74,144,226); fill-rule: nonzero; opacity: 1;" transform=" matrix(1 0 0 1 0 0) " stroke-linecap="round"/>
	<path d="M 36.376 90 c -5.4 0 -9.793 -4.804 -9.793 -10.709 c 0 -0.553 0.448 -1 1 -1 s 1 0.447 1 1 c 0 4.802 3.496 8.709 7.793 8.709 s 7.793 -3.907 7.793 -8.709 c 0 -0.553 0.448 -1 1 -1 s 1 0.447 1 1 C 46.17 85.196 41.776 90 36.376 90 z" style="stroke: none; stroke-width: 1; stroke-dasharray: none; stroke-linecap: butt; stroke-linejoin: miter; stroke-miterlimit: 10; fill: rgb(74,144,226); fill-rule: nonzero; opacity: 1;" transform=" matrix(1 0 0 1 0 0) " stroke-linecap="round"/>
	<path d="M 45.169 80.291 L 45.169 80.291 c -0.552 0 -1 -0.447 -1 -1 L 44.17 8.688 c 0 -0.552 0.448 -1 1 -1 l 0 0 c 0.552 0 1 0.448 1 1 l -0.001 70.604 C 46.169 79.844 45.721 80.291 45.169 80.291 z" style="stroke: none; stroke-width: 1; stroke-dasharray: none; stroke-linecap: butt; stroke-linejoin: miter; stroke-miterlimit: 10; fill: rgb(74,144,226); fill-rule: nonzero; opacity: 1;" transform=" matrix(1 0 0 1 0 0) " stroke-linecap="round"/>
	<path d="M 73.519 46 H 45.17 c -0.552 0 -1 -0.448 -1 -1 s 0.448 -1 1 -1 h 28.349 c 0.553 0 1 0.448 1 1 S 74.071 46 73.519 46 z" style="stroke: none; stroke-width: 1; stroke-dasharray: none; stroke-linecap: butt; stroke-linejoin: miter; stroke-miterlimit: 10; fill: rgb(74,144,226); fill-rule: nonzero; opacity: 1;" transform=" matrix(1 0 0 1 0 0) " stroke-linecap="round"/>
	<path d="M 78.283 50.765 c -3.179 0 -5.765 -2.586 -5.765 -5.765 s 2.586 -5.765 5.765 -5.765 s 5.766 2.586 5.766 5.765 S 81.462 50.765 78.283 50.765 z M 78.283 41.235 c -2.076 0 -3.765 1.689 -3.765 3.765 s 1.688 3.765 3.765 3.765 s 3.766 -1.688 3.766 -3.765 S 80.359 41.235 78.283 41.235 z" style="stroke: none; stroke-width: 1; stroke-dasharray: none; stroke-linecap: butt; stroke-linejoin: miter; stroke-miterlimit: 10; fill: rgb(74,144,226); fill-rule: nonzero; opacity: 1;" transform=" matrix(1 0 0 1 0 0) " stroke-linecap="round"/>
	<path d="M 59.219 30.402 H 45.17 c -0.552 0 -1 -0.448 -1 -1 s 0.448 -1 1 -1 h 13.665 l 7.301 -6.576 c 0.407 -0.369 1.041 -0.338 1.412 0.074 c 0.369 0.411 0.337 1.043 -0.074 1.413 l -7.586 6.833 C 59.704 30.311 59.466 30.402 59.219 30.402 z" style="stroke: none; stroke-width: 1; stroke-dasharray: none; stroke-linecap: butt; stroke-linejoin: miter; stroke-miterlimit: 10; fill: rgb(74,144,226); fill-rule: nonzero; opacity: 1;" transform=" matrix(1 0 0 1 0 0) " stroke-linecap="round"/>
	<path d="M 70.345 25.146 c -3.179 0 -5.765 -2.586 -5.765 -5.765 s 2.586 -5.765 5.765 -5.765 s 5.765 2.586 5.765 5.765 S 73.523 25.146 70.345 25.146 z M 70.345 15.615 c -2.076 0 -3.765 1.689 -3.765 3.765 s 1.688 3.765 3.765 3.765 s 3.765 -1.689 3.765 -3.765 S 72.421 15.615 70.345 15.615 z" style="stroke: none; stroke-width: 1; stroke-dasharray: none; stroke-linecap: butt; stroke-linejoin: miter; stroke-miterlimit: 10; fill: rgb(74,144,226); fill-rule: nonzero; opacity: 1;" transform=" matrix(1 0 0 1 0 0) " stroke-linecap="round"/>
	<path d="M 66.805 68.432 c -0.239 0 -0.479 -0.085 -0.669 -0.257 l -7.301 -6.576 H 45.17 c -0.552 0 -1 -0.447 -1 -1 s 0.448 -1 1 -1 h 14.049 c 0.247 0 0.485 0.092 0.669 0.257 l 7.586 6.833 c 0.411 0.37 0.443 1.002 0.074 1.412 C 67.351 68.32 67.078 68.432 66.805 68.432 z" style="stroke: none; stroke-width: 1; stroke-dasharray: none; stroke-linecap: butt; stroke-linejoin: miter; stroke-miterlimit: 10; fill: rgb(74,144,226); fill-rule: nonzero; opacity: 1;" transform=" matrix(1 0 0 1 0 0) " stroke-linecap="round"/>
	<path d="M 70.345 76.385 c -3.179 0 -5.765 -2.586 -5.765 -5.765 s 2.586 -5.766 5.765 -5.766 s 5.765 2.587 5.765 5.766 S 73.523 76.385 70.345 76.385 z M 70.345 66.854 c -2.076 0 -3.765 1.689 -3.765 3.766 s 1.688 3.765 3.765 3.765 s 3.765 -1.688 3.765 -3.765 S 72.421 66.854 70.345 66.854 z" style="stroke: none; stroke-width: 1; stroke-dasharray: none; stroke-linecap: butt; stroke-linejoin: miter; stroke-miterlimit: 10; fill: rgb(74,144,226); fill-rule: nonzero; opacity: 1;" transform=" matrix(1 0 0 1 0 0) " stroke-linecap="round"/>
	<path d="M 55.206 14.924 H 45.169 c -0.552 0 -1 -0.448 -1 -1 s 0.448 -1 1 -1 h 10.037 c 0.553 0 1 0.448 1 1 S 55.759 14.924 55.206 14.924 z" style="stroke: none; stroke-width: 1; stroke-dasharray: none; stroke-linecap: butt; stroke-linejoin: miter; stroke-miterlimit: 10; fill: rgb(74,144,226); fill-rule: nonzero; opacity: 1;" transform=" matrix(1 0 0 1 0 0) " stroke-linecap="round"/>
	<path d="M 55.206 77.076 H 45.169 c -0.552 0 -1 -0.447 -1 -1 s 0.448 -1 1 -1 h 10.037 c 0.553 0 1 0.447 1 1 S 55.759 77.076 55.206 77.076 z" style="stroke: none; stroke-width: 1; stroke-dasharray: none; stroke-linecap: butt; stroke-linejoin: miter; stroke-miterlimit: 10; fill: rgb(74,144,226); fill-rule: nonzero; opacity: 1;" transform=" matrix(1 0 0 1 0 0) " stroke-linecap="round"/>
</g>
</svg>