<svg xmlns="http://www.w3.org/2000/svg" xmlns:xlink="http://www.w3.org/1999/xlink" version="1.1" width="256" height="256" viewBox="0 0 256 256" xml:space="preserve">
<g style="stroke: none; stroke-width: 0; stroke-dasharray: none; stroke-linecap: butt; stroke-linejoin: miter; stroke-miterlimit: 10; fill: none; fill-rule: nonzero; opacity: 1;" transform="translate(1.4065934065934016 1.4065934065934016) scale(2.81 2.81)">
	<path d="M 88.799 42.712 c -1.423 -0.589 -1.931 -1.878 -1.93 -2.888 c 0 -1.01 0.507 -2.298 1.93 -2.888 c 0.479 -0.199 0.854 -0.573 1.052 -1.053 c 0.199 -0.48 0.199 -1.009 0 -1.488 l -1.779 -4.297 c -0.411 -0.99 -1.551 -1.462 -2.541 -1.051 c -1.421 0.589 -2.693 0.036 -3.407 -0.678 c -0.714 -0.714 -1.267 -1.984 -0.677 -3.407 c 0.41 -0.991 -0.062 -2.13 -1.053 -2.54 l -4.296 -1.78 c -0.481 -0.199 -1.01 -0.198 -1.489 0 c -0.479 0.199 -0.854 0.573 -1.052 1.052 c -0.59 1.423 -1.879 1.93 -2.889 1.93 c -1.01 0 -2.299 -0.507 -2.888 -1.929 c -0.198 -0.48 -0.572 -0.854 -1.052 -1.053 c -0.479 -0.198 -1.007 -0.199 -1.489 0 l -2.892 1.198 c -5.015 -4.786 -11.804 -7.277 -18.751 -6.842 c -6.065 0.381 -11.549 2.968 -15.671 6.955 l -3.165 -1.311 c -0.48 -0.199 -1.009 -0.2 -1.489 0 c -0.48 0.199 -0.854 0.573 -1.052 1.052 c -0.589 1.423 -1.878 1.93 -2.888 1.93 c -1.01 0 -2.298 -0.507 -2.888 -1.93 c -0.199 -0.48 -0.573 -0.854 -1.053 -1.052 c -0.479 -0.199 -1.008 -0.2 -1.488 0 l -4.297 1.779 c -0.991 0.411 -1.463 1.55 -1.052 2.541 c 0.589 1.423 0.036 2.693 -0.678 3.407 c -0.714 0.715 -1.985 1.269 -3.406 0.678 c -0.48 -0.2 -1.009 -0.2 -1.489 0 c -0.48 0.199 -0.854 0.573 -1.052 1.052 l -1.78 4.296 c -0.411 0.991 0.062 2.13 1.052 2.541 c 1.423 0.589 1.93 1.878 1.93 2.888 s -0.507 2.299 -1.929 2.888 c -0.48 0.199 -0.854 0.573 -1.053 1.053 c -0.199 0.48 -0.199 1.009 0 1.489 l 1.779 4.295 c 0.198 0.48 0.572 0.854 1.053 1.054 c 0.481 0.2 1.009 0.2 1.488 0 c 1.424 -0.589 2.693 -0.037 3.407 0.677 c 0.714 0.715 1.267 1.984 0.677 3.407 c -0.199 0.479 -0.199 1.009 0 1.489 c 0.199 0.479 0.573 0.854 1.052 1.052 l 4.295 1.779 c 0.479 0.198 1.009 0.199 1.489 0 c 0.48 -0.198 0.854 -0.572 1.053 -1.052 c 0.589 -1.423 1.878 -1.93 2.888 -1.93 c 1.01 -0.001 2.299 0.507 2.888 1.93 c 0.199 0.479 0.573 0.854 1.053 1.052 c 0.24 0.1 0.492 0.149 0.744 0.149 s 0.504 -0.05 0.744 -0.149 l 3.176 -1.315 c 0.587 0.568 1.197 1.117 1.845 1.629 c 3.184 2.519 5.009 6.214 5.009 10.138 v 0.569 v 6.378 c 0 1.459 0.993 2.679 2.334 3.053 v 4.004 c 0 2.929 2.382 5.31 5.311 5.31 h 5.533 c 2.929 0 5.31 -2.382 5.31 -5.31 v -4.004 c 1.341 -0.374 2.334 -1.594 2.334 -3.053 v -6.378 v -0.571 c 0 -3.908 1.808 -7.646 4.835 -9.999 c 0.63 -0.489 1.253 -1.047 1.886 -1.655 l 2.907 1.204 c 0.48 0.2 1.01 0.2 1.488 0 c 0.48 -0.198 0.854 -0.572 1.053 -1.052 c 0.59 -1.423 1.879 -1.93 2.889 -1.93 c 1.009 0 2.298 0.507 2.888 1.93 c 0.198 0.479 0.572 0.854 1.053 1.052 c 0.239 0.1 0.491 0.149 0.743 0.149 c 0.253 0 0.505 -0.05 0.745 -0.149 l 4.295 -1.779 c 0.48 -0.198 0.854 -0.572 1.054 -1.053 c 0.198 -0.479 0.198 -1.008 0 -1.488 c -0.59 -1.423 -0.037 -2.692 0.677 -3.407 c 0.715 -0.714 1.985 -1.268 3.406 -0.677 c 0.48 0.198 1.009 0.2 1.489 0 c 0.479 -0.198 0.854 -0.571 1.053 -1.052 l 1.778 -4.294 c 0.2 -0.479 0.201 -1.008 0.003 -1.488 C 89.654 43.286 89.279 42.912 88.799 42.712 z M 21.215 46.31 c -0.611 0.178 -1.24 0.275 -1.884 0.275 c -3.728 0 -6.761 -3.033 -6.761 -6.761 s 3.033 -6.761 6.761 -6.761 c 0.635 0 1.257 0.095 1.861 0.27 c -0.407 1.509 -0.682 3.072 -0.796 4.679 C 20.198 40.846 20.493 43.645 21.215 46.31 z M 24.066 57.188 c -0.809 -1.952 -2.623 -3.165 -4.736 -3.164 c -2.112 0 -3.927 1.212 -4.663 3.134 l -4.267 -1.707 c 0.809 -1.952 0.383 -4.093 -1.111 -5.587 c -1.494 -1.493 -3.634 -1.92 -5.514 -1.081 l -1.81 -4.224 c 1.952 -0.809 3.164 -2.623 3.164 -4.736 c 0 -2.112 -1.212 -3.927 -3.134 -4.663 l 1.707 -4.267 c 1.952 0.809 4.092 0.383 5.587 -1.111 c 1.494 -1.494 1.919 -3.635 1.081 -5.515 l 4.225 -1.809 c 0.808 1.952 2.623 3.164 4.735 3.164 c 0 0 0 0 0 0 c 2.113 0 3.927 -1.212 4.663 -3.134 l 2.458 1.018 c -2.01 2.307 -3.61 4.978 -4.664 7.91 c -0.796 -0.235 -1.619 -0.355 -2.457 -0.355 c -4.831 0 -8.761 3.93 -8.761 8.761 c 0 4.83 3.93 8.761 8.761 8.761 c 0.841 0 1.666 -0.119 2.464 -0.354 c 0.044 0.123 0.104 0.24 0.15 0.362 c 0.185 0.489 0.386 0.971 0.601 1.448 c 0.107 0.236 0.22 0.469 0.334 0.701 c 0.234 0.479 0.483 0.951 0.748 1.414 c 0.058 0.101 0.11 0.206 0.169 0.306 c 0.346 0.586 0.724 1.154 1.118 1.711 c 0.079 0.111 0.159 0.221 0.239 0.331 c 0.414 0.566 0.844 1.121 1.308 1.653 L 24.066 57.188 z M 51.277 83.462 c 0 1.825 -1.485 3.31 -3.31 3.31 h -5.533 c -1.826 0 -3.311 -1.485 -3.311 -3.31 v -3.875 h 12.154 V 83.462 z M 53.611 76.405 c 0 0.652 -0.53 1.183 -1.183 1.183 h -0.151 H 38.123 h -0.151 c -0.652 0 -1.183 -0.53 -1.183 -1.183 v -5.378 h 16.822 V 76.405 z M 45.2 27.804 c -1.507 0 -2.734 -1.227 -2.734 -2.734 c 0 -1.508 1.227 -2.734 2.734 -2.734 c 1.508 0 2.734 1.227 2.734 2.734 C 47.935 26.577 46.708 27.804 45.2 27.804 z M 59.219 57.877 c -3.4 2.643 -5.475 6.785 -5.602 11.15 H 46.2 V 58.608 l 4.963 -4.335 c 0.416 -0.363 0.458 -0.995 0.095 -1.411 s -0.996 -0.459 -1.411 -0.095 L 46.2 55.953 v -26.26 c 2.131 -0.461 3.734 -2.356 3.734 -4.623 c 0 -2.61 -2.124 -4.734 -4.734 -4.734 s -4.734 2.124 -4.734 4.734 c 0 2.267 1.603 4.162 3.734 4.623 v 26.224 l -9.806 -8.779 v -4.704 c 2.131 -0.461 3.734 -2.356 3.734 -4.623 c 0 -2.61 -2.124 -4.734 -4.734 -4.734 S 28.66 35.2 28.66 37.811 c 0 2.267 1.603 4.162 3.734 4.623 v 5.151 c 0 0.284 0.121 0.556 0.333 0.745 L 44.2 58.601 v 10.426 h -7.417 c -0.128 -4.377 -2.212 -8.467 -5.762 -11.275 c -0.758 -0.6 -1.47 -1.244 -2.138 -1.924 c -0.004 -0.004 -0.006 -0.009 -0.01 -0.012 c -0.871 -0.889 -1.662 -1.852 -2.376 -2.866 c -0.066 -0.094 -0.137 -0.184 -0.202 -0.279 c -0.067 -0.099 -0.127 -0.201 -0.193 -0.301 c -2.722 -4.145 -4.07 -9.123 -3.711 -14.216 c 0.125 -1.766 0.474 -3.468 0.98 -5.102 c 0.005 -0.013 0.016 -0.023 0.02 -0.036 c 1.078 -3.428 2.981 -6.599 5.504 -9.173 c 0.062 -0.063 0.112 -0.133 0.155 -0.208 c 3.817 -3.809 8.967 -6.283 14.67 -6.641 c 6.133 -0.383 12.132 1.704 16.682 5.761 c -0.015 0.013 -0.026 0.031 -0.04 0.044 c -0.067 0.062 -0.126 0.132 -0.184 0.203 c -0.028 0.035 -0.06 0.067 -0.086 0.104 c -0.079 0.114 -0.149 0.236 -0.204 0.367 c -0.198 0.48 -0.198 1.009 0.001 1.487 c 0.589 1.423 0.036 2.694 -0.679 3.408 c -0.713 0.714 -1.981 1.267 -3.405 0.677 c -0.48 -0.199 -1.009 -0.198 -1.489 0 c -0.479 0.199 -0.854 0.573 -1.052 1.052 l -1.78 4.297 c -0.41 0.991 0.062 2.13 1.053 2.54 c 1.423 0.589 1.93 1.878 1.93 2.888 c 0 0.126 -0.008 0.257 -0.025 0.39 c -0.116 0.931 -0.66 1.983 -1.905 2.498 c -0.002 0.001 -0.004 0.002 -0.006 0.003 c -0.12 0.05 -0.233 0.111 -0.339 0.182 c -0.014 0.01 -0.025 0.022 -0.039 0.032 c -0.091 0.065 -0.178 0.134 -0.256 0.213 c -0.001 0.001 -0.002 0.002 -0.003 0.003 c -0.173 0.176 -0.313 0.384 -0.41 0.619 c -0.09 0.218 -0.133 0.446 -0.142 0.674 c -0.001 0.02 -0.006 0.039 -0.006 0.059 c -0.001 0.095 0.012 0.19 0.026 0.285 c 0.005 0.033 0.003 0.065 0.01 0.097 c 0.025 0.127 0.062 0.252 0.112 0.374 l 1.78 4.295 c 0.05 0.122 0.112 0.237 0.184 0.344 c 0.014 0.021 0.032 0.037 0.047 0.057 c 0.061 0.084 0.125 0.166 0.198 0.238 c 0.003 0.003 0.007 0.006 0.011 0.009 c 0.175 0.17 0.38 0.309 0.612 0.405 c 0.482 0.2 1.011 0.198 1.489 0 c 1.421 -0.588 2.692 -0.038 3.405 0.677 c 0.715 0.714 1.268 1.984 0.678 3.407 c -0.198 0.48 -0.198 1.009 0 1.488 c 0.054 0.13 0.123 0.251 0.201 0.364 c 0.026 0.037 0.057 0.069 0.086 0.104 c 0.058 0.072 0.117 0.142 0.184 0.204 c 0.013 0.012 0.023 0.028 0.036 0.04 C 60.003 57.243 59.612 57.571 59.219 57.877 z M 33.394 40.545 c -1.507 0 -2.734 -1.227 -2.734 -2.734 s 1.227 -2.734 2.734 -2.734 c 1.508 0 2.734 1.227 2.734 2.734 S 34.902 40.545 33.394 40.545 z M 86.295 48.754 c -1.952 -0.811 -4.093 -0.384 -5.587 1.11 c -1.493 1.494 -1.919 3.635 -1.081 5.515 l -4.224 1.81 c -0.809 -1.952 -2.623 -3.164 -4.735 -3.164 c -2.113 0 -3.928 1.212 -4.664 3.134 l -3.268 -1.308 c -0.073 -0.058 -0.151 -0.109 -0.239 -0.146 l -0.737 -0.306 c 0.053 -0.132 0.086 -0.266 0.128 -0.399 c 0.033 -0.104 0.074 -0.206 0.1 -0.31 c 0.035 -0.142 0.052 -0.284 0.075 -0.426 c 0.017 -0.106 0.043 -0.212 0.053 -0.318 c 0.014 -0.142 0.01 -0.283 0.011 -0.425 c 0.001 -0.106 0.012 -0.212 0.006 -0.317 c -0.007 -0.144 -0.033 -0.286 -0.052 -0.429 c -0.014 -0.1 -0.019 -0.202 -0.039 -0.301 c -0.03 -0.148 -0.078 -0.291 -0.121 -0.436 c -0.027 -0.091 -0.045 -0.183 -0.077 -0.273 c -0.056 -0.154 -0.13 -0.302 -0.201 -0.451 c -0.036 -0.075 -0.062 -0.153 -0.102 -0.226 c -0.094 -0.174 -0.207 -0.34 -0.322 -0.505 c -0.03 -0.043 -0.053 -0.089 -0.084 -0.131 c -0.153 -0.205 -0.322 -0.401 -0.509 -0.587 c -1.493 -1.495 -3.637 -1.918 -5.513 -1.081 l -1.81 -4.224 c 1.951 -0.809 3.164 -2.623 3.164 -4.736 c 0 -2.112 -1.213 -3.927 -3.135 -4.663 l 1.708 -4.267 c 1.952 0.809 4.092 0.383 5.585 -1.11 c 1.495 -1.494 1.921 -3.634 1.082 -5.515 l 0.034 -0.015 l 0.768 -0.318 c 0.028 -0.012 0.052 -0.03 0.078 -0.044 l 3.344 -1.432 c 0.808 1.951 2.622 3.164 4.734 3.164 c 0.001 0 0.001 0 0.001 0 c 2.112 0 3.928 -1.212 4.664 -3.134 l 4.267 1.707 c -0.809 1.952 -0.383 4.092 1.11 5.586 c 1.493 1.493 3.631 1.921 5.515 1.082 l 1.81 4.224 c -1.952 0.808 -3.164 2.623 -3.164 4.735 c -0.001 2.094 1.19 3.895 3.112 4.715 L 86.295 48.754 z" style="stroke: none; stroke-width: 1; stroke-dasharray: none; stroke-linecap: butt; stroke-linejoin: miter; stroke-miterlimit: 10; fill: rgb(74,144,226); fill-rule: nonzero; opacity: 1;" transform=" matrix(1 0 0 1 0 0) " stroke-linecap="round"/>
	<path d="M 70.668 31.063 c -1.079 0 -2.109 0.205 -3.064 0.564 c -0.004 0.002 -0.009 0 -0.013 0.002 H 67.59 c -0.003 0.001 -0.006 0.002 -0.009 0.003 c -0.01 0.004 -0.019 0.01 -0.029 0.014 c -0.788 0.301 -1.52 0.712 -2.18 1.215 c -0.022 0.017 -0.047 0.029 -0.069 0.046 l 0 0 c 0 0 -0.001 0 -0.001 0 c -0.036 0.028 -0.072 0.058 -0.107 0.087 c -0.287 0.231 -0.559 0.479 -0.815 0.744 c -0.013 0.013 -0.028 0.025 -0.041 0.038 c -0.003 0.003 -0.004 0.007 -0.006 0.01 c -0.003 0.003 -0.007 0.004 -0.009 0.006 v 0 c -0.001 0 -0.001 0.001 -0.001 0.001 c -0.065 0.068 -0.129 0.138 -0.192 0.209 c -0.023 0.026 -0.041 0.054 -0.064 0.08 c -0.157 0.181 -0.305 0.368 -0.448 0.561 c -0.027 0.037 -0.06 0.071 -0.086 0.108 c -0.004 0.005 -0.004 0.012 -0.008 0.018 c -0.003 0.005 -0.007 0.009 -0.01 0.014 c -0.005 0.007 -0.014 0.01 -0.019 0.018 c -0.01 0.015 -0.019 0.032 -0.029 0.047 c -0.119 0.172 -0.227 0.35 -0.334 0.53 c -0.025 0.043 -0.053 0.079 -0.077 0.123 c -0.007 0.013 -0.014 0.027 -0.022 0.04 c -0.043 0.076 -0.084 0.153 -0.125 0.23 c -0.012 0.023 -0.025 0.045 -0.037 0.068 c 0 0.001 -0.001 0.002 -0.002 0.003 v 0 c -0.003 0.007 -0.003 0.014 -0.006 0.021 c -0.022 0.044 -0.042 0.088 -0.064 0.132 c -0.003 0.006 -0.009 0.009 -0.011 0.015 c -0.01 0.021 -0.016 0.043 -0.027 0.064 c -0.123 0.259 -0.234 0.524 -0.331 0.796 c -0.012 0.032 -0.029 0.065 -0.04 0.097 c -0.001 0.002 -0.001 0.006 -0.002 0.004 c 0 0.001 -0.001 0.002 -0.001 0.003 c 0 0.001 -0.002 0.001 -0.001 0.004 c -0.002 0.001 -0.002 0.003 -0.002 0.004 c -0.001 0.002 0 0.002 -0.001 0.004 c -0.002 0 -0.003 0 -0.002 0.004 c 0 0.001 0.001 0.003 -0.001 0.004 c 0 0.001 0 0.001 -0.002 0.004 c 0.001 0.003 -0.001 0.003 -0.001 0.004 s -0.001 0.003 -0.002 0.004 c -0.001 0.002 -0.001 0.002 -0.001 0.004 c 0 0.001 -0.001 0.003 -0.001 0.004 c -0.004 0.001 -0.002 0.003 -0.002 0.004 s -0.001 0.003 -0.001 0.004 v 0 c -0.001 0.001 -0.001 0.002 -0.002 0.004 c -0.004 0.011 -0.007 0.021 -0.011 0.032 c 0 0.001 -0.001 0.003 -0.001 0.004 c -0.001 0.004 -0.001 0.008 -0.002 0.012 c -0.008 0.024 -0.018 0.047 -0.026 0.071 c -0.001 0.003 -0.004 0.006 -0.005 0.009 c -0.003 0.008 -0.006 0.017 -0.008 0.025 c 0 0.002 -0.001 0.003 -0.001 0.005 c -0.021 0.068 -0.037 0.138 -0.057 0.207 c -0.04 0.141 -0.078 0.285 -0.113 0.438 c -0.036 0.153 -0.067 0.308 -0.095 0.464 c -0.001 0.008 -0.003 0.015 -0.005 0.022 c 0 0 -0.001 0.001 -0.001 0.001 c 0 0 0 0 0 0 c -0.001 0.004 0.001 0.007 0 0.011 c -0.015 0.084 -0.027 0.169 -0.039 0.253 c 0 0.003 -0.002 0.005 -0.003 0.007 c -0.002 0.013 -0.002 0.023 -0.004 0.035 c -0.023 0.168 -0.043 0.337 -0.057 0.508 c -0.021 0.24 -0.035 0.47 -0.035 0.691 c 0 0.22 0.014 0.45 0.035 0.689 c 0.014 0.173 0.034 0.343 0.057 0.513 c 0.001 0.011 0.002 0.019 0.003 0.03 c 0 0.002 0.002 0.004 0.002 0.007 c 0.012 0.081 0.023 0.162 0.037 0.243 c 0.001 0.006 0.001 0.012 0.002 0.019 c 0.001 0.009 0.004 0.016 0.005 0.024 c 0.028 0.158 0.059 0.313 0.096 0.468 c 0.031 0.138 0.067 0.271 0.103 0.401 c 0.025 0.086 0.045 0.174 0.072 0.259 c 0.001 0.003 0.002 0.007 0.003 0.011 c 0.001 0.003 0.003 0.004 0.003 0.007 c 0.008 0.024 0.018 0.047 0.026 0.071 c 0.001 0.004 0.001 0.007 0.002 0.011 c 0.009 0.026 0.022 0.052 0.031 0.078 c 0.09 0.264 0.192 0.522 0.307 0.774 c 0.003 0.007 0.005 0.014 0.008 0.021 c 0.027 0.06 0.056 0.12 0.084 0.18 c 0.004 0.009 0.011 0.015 0.016 0.023 c 0.021 0.042 0.04 0.085 0.061 0.127 c 0.003 0.007 0.003 0.015 0.006 0.022 c -0.001 0 0.002 0.002 0.002 0.004 c 0.011 0.021 0.023 0.041 0.034 0.062 c 0.052 0.1 0.107 0.197 0.163 0.294 c 0.027 0.048 0.052 0.099 0.081 0.146 c 0.045 0.076 0.095 0.145 0.141 0.219 c 0.056 0.088 0.11 0.177 0.17 0.263 c 0.011 0.016 0.021 0.034 0.033 0.051 c 0.001 0 0.001 0.001 0.001 0.001 c 0 0 0 0 0.001 0.001 c 0.004 0.005 0.01 0.007 0.014 0.012 c 0.005 0.007 0.01 0.013 0.014 0.019 c 0.004 0.005 0.004 0.011 0.007 0.016 c 0 0.001 0.002 0.003 0.002 0.003 c 0.026 0.037 0.059 0.071 0.086 0.108 c 0.143 0.194 0.292 0.383 0.45 0.565 c 0.022 0.025 0.039 0.052 0.061 0.077 c 0.062 0.069 0.124 0.136 0.187 0.203 c 0.001 0 0.001 0.001 0.002 0.001 v 0 c 0.003 0.003 0.008 0.004 0.011 0.008 c 0.004 0.005 0.006 0.011 0.01 0.016 v 0 c 0.001 0 0.001 0.001 0.001 0.001 c 0.019 0.02 0.04 0.038 0.06 0.058 c 0.073 0.075 0.149 0.147 0.225 0.219 c 0.047 0.045 0.09 0.091 0.138 0.135 c 0.046 0.042 0.096 0.08 0.143 0.121 c 0.106 0.093 0.213 0.186 0.324 0.274 c 0.021 0.017 0.04 0.035 0.061 0.052 c 0.001 0.001 0.003 0.002 0.004 0.003 c 0 0 0 0.001 0.001 0.001 c 0.001 0.001 0.002 0.001 0.003 0.002 c 0 0 0.001 0 0.001 0.001 c 0.021 0.016 0.044 0.027 0.065 0.043 c 0.658 0.503 1.388 0.914 2.174 1.216 c 0.01 0.004 0.02 0.01 0.03 0.014 c 0.003 0.001 0.007 0.002 0.011 0.004 c 0.005 0.002 0.011 0.001 0.016 0.003 c 0.958 0.361 1.991 0.567 3.074 0.567 c 4.831 0 8.761 -3.93 8.761 -8.761 C 79.429 34.993 75.499 31.063 70.668 31.063 z M 70.668 46.585 c -0.844 0 -1.649 -0.162 -2.394 -0.446 c -0.619 -0.235 -1.197 -0.56 -1.721 -0.963 c -0.021 -0.016 -0.042 -0.031 -0.062 -0.047 c -0.105 -0.083 -0.206 -0.17 -0.306 -0.259 c -0.054 -0.048 -0.109 -0.097 -0.162 -0.147 c -0.072 -0.068 -0.143 -0.136 -0.211 -0.207 c -0.076 -0.079 -0.149 -0.161 -0.222 -0.244 c -0.141 -0.161 -0.277 -0.331 -0.405 -0.509 c -0.023 -0.031 -0.047 -0.061 -0.07 -0.093 c -0.056 -0.08 -0.109 -0.166 -0.162 -0.25 c -0.047 -0.074 -0.093 -0.149 -0.137 -0.225 c -0.051 -0.089 -0.102 -0.18 -0.151 -0.273 c -0.032 -0.062 -0.061 -0.126 -0.091 -0.189 c -0.12 -0.249 -0.226 -0.505 -0.314 -0.769 c -0.011 -0.033 -0.025 -0.064 -0.035 -0.096 c -0.02 -0.064 -0.037 -0.133 -0.055 -0.199 c -0.027 -0.095 -0.051 -0.19 -0.074 -0.286 c -0.029 -0.127 -0.056 -0.257 -0.081 -0.397 c 0 -0.001 -0.001 -0.001 -0.001 -0.002 c -0.011 -0.063 -0.02 -0.127 -0.029 -0.191 c -0.001 -0.005 0 -0.011 -0.001 -0.016 c -0.023 -0.16 -0.038 -0.305 -0.051 -0.444 c -0.013 -0.168 -0.026 -0.335 -0.026 -0.506 c 0 -0.171 0.013 -0.34 0.026 -0.508 c 0.012 -0.14 0.028 -0.284 0.05 -0.444 c 0.001 -0.004 0 -0.009 0.001 -0.013 c 0.009 -0.064 0.018 -0.127 0.029 -0.191 c 0 -0.001 0.001 -0.002 0.001 -0.003 c 0.025 -0.143 0.053 -0.273 0.081 -0.401 c 0.025 -0.105 0.051 -0.209 0.08 -0.312 c 0.015 -0.054 0.029 -0.112 0.045 -0.164 c 0.013 -0.041 0.031 -0.08 0.044 -0.121 c 0.089 -0.262 0.195 -0.514 0.312 -0.761 c 0.029 -0.06 0.056 -0.12 0.086 -0.179 c 0.039 -0.075 0.078 -0.148 0.118 -0.22 c 0.014 -0.024 0.029 -0.047 0.044 -0.072 c 0.092 -0.16 0.189 -0.314 0.289 -0.459 c 0.027 -0.038 0.057 -0.074 0.084 -0.112 c 0.123 -0.169 0.252 -0.332 0.387 -0.485 c 0.071 -0.081 0.142 -0.161 0.217 -0.239 c 0.175 -0.181 0.359 -0.353 0.55 -0.512 c 0.039 -0.033 0.08 -0.065 0.12 -0.097 c 0.027 -0.021 0.055 -0.04 0.082 -0.061 c 0.526 -0.404 1.104 -0.728 1.721 -0.963 c 0.745 -0.283 1.549 -0.445 2.392 -0.445 c 3.727 0 6.761 3.033 6.761 6.761 S 74.396 46.585 70.668 46.585 z" style="stroke: none; stroke-width: 1; stroke-dasharray: none; stroke-linecap: butt; stroke-linejoin: miter; stroke-miterlimit: 10; fill: rgb(74,144,226); fill-rule: nonzero; opacity: 1;" transform=" matrix(1 0 0 1 0 0) " stroke-linecap="round"/>
	<path d="M 45.2 10.714 c 0.552 0 1 -0.448 1 -1 V 2.227 c 0 -0.552 -0.448 -1 -1 -1 c -0.552 0 -1 0.448 -1 1 v 7.487 C 44.2 10.266 44.648 10.714 45.2 10.714 z" style="stroke: none; stroke-width: 1; stroke-dasharray: none; stroke-linecap: butt; stroke-linejoin: miter; stroke-miterlimit: 10; fill: rgb(74,144,226); fill-rule: nonzero; opacity: 1;" transform=" matrix(1 0 0 1 0 0) " stroke-linecap="round"/>
	<path d="M 59.361 14.381 c 0.274 0 0.548 -0.112 0.745 -0.333 l 4.682 -5.232 c 0.368 -0.412 0.333 -1.044 -0.078 -1.412 c -0.412 -0.369 -1.044 -0.334 -1.412 0.078 l -4.682 5.232 c -0.368 0.412 -0.333 1.044 0.078 1.412 C 58.885 14.297 59.124 14.381 59.361 14.381 z" style="stroke: none; stroke-width: 1; stroke-dasharray: none; stroke-linecap: butt; stroke-linejoin: miter; stroke-miterlimit: 10; fill: rgb(74,144,226); fill-rule: nonzero; opacity: 1;" transform=" matrix(1 0 0 1 0 0) " stroke-linecap="round"/>
	<path d="M 30.295 14.048 c 0.197 0.221 0.471 0.333 0.746 0.333 c 0.237 0 0.476 -0.084 0.666 -0.255 c 0.412 -0.368 0.446 -1 0.078 -1.412 l -4.682 -5.232 c -0.368 -0.411 -1 -0.447 -1.412 -0.078 c -0.412 0.368 -0.446 1 -0.078 1.412 L 30.295 14.048 z" style="stroke: none; stroke-width: 1; stroke-dasharray: none; stroke-linecap: butt; stroke-linejoin: miter; stroke-miterlimit: 10; fill: rgb(74,144,226); fill-rule: nonzero; opacity: 1;" transform=" matrix(1 0 0 1 0 0) " stroke-linecap="round"/>
	<path d="M 62.856 63.403 c -0.367 -0.411 -0.999 -0.447 -1.412 -0.078 c -0.411 0.368 -0.446 1 -0.078 1.412 l 4.682 5.232 c 0.197 0.221 0.471 0.333 0.745 0.333 c 0.237 0 0.476 -0.084 0.667 -0.255 c 0.411 -0.368 0.446 -1 0.078 -1.412 L 62.856 63.403 z" style="stroke: none; stroke-width: 1; stroke-dasharray: none; stroke-linecap: butt; stroke-linejoin: miter; stroke-miterlimit: 10; fill: rgb(74,144,226); fill-rule: nonzero; opacity: 1;" transform=" matrix(1 0 0 1 0 0) " stroke-linecap="round"/>
	<path d="M 27.545 63.403 l -4.682 5.232 c -0.368 0.412 -0.333 1.044 0.078 1.412 c 0.191 0.171 0.429 0.255 0.666 0.255 c 0.275 0 0.548 -0.112 0.746 -0.333 l 4.682 -5.232 c 0.368 -0.412 0.333 -1.044 -0.078 -1.412 C 28.545 62.957 27.913 62.992 27.545 63.403 z" style="stroke: none; stroke-width: 1; stroke-dasharray: none; stroke-linecap: butt; stroke-linejoin: miter; stroke-miterlimit: 10; fill: rgb(74,144,226); fill-rule: nonzero; opacity: 1;" transform=" matrix(1 0 0 1 0 0) " stroke-linecap="round"/>
</g>
</svg>