<svg xmlns="http://www.w3.org/2000/svg" xmlns:xlink="http://www.w3.org/1999/xlink" version="1.1" width="256" height="256" viewBox="0 0 256 256" xml:space="preserve">
<g style="stroke: none; stroke-width: 0; stroke-dasharray: none; stroke-linecap: butt; stroke-linejoin: miter; stroke-miterlimit: 10; fill: none; fill-rule: nonzero; opacity: 1;" transform="translate(1.4065934065934016 1.4065934065934016) scale(2.81 2.81)">
	<path d="M 45 35.634 c -3.792 0 -6.878 4.326 -6.878 9.643 S 41.208 54.92 45 54.92 c 3.793 0 6.878 -4.325 6.878 -9.643 S 48.793 35.634 45 35.634 z" style="stroke: none; stroke-width: 1; stroke-dasharray: none; stroke-linecap: butt; stroke-linejoin: miter; stroke-miterlimit: 10; fill: rgb(74,144,226); fill-rule: nonzero; opacity: 1;" transform=" matrix(1 0 0 1 0 0) " stroke-linecap="round"/>
	<path d="M 34.122 45.277 c 0 -3.684 1.175 -7.025 3.073 -9.482 c -7.431 1.393 -13.658 4.729 -16.82 9.205 c 3.093 4.379 9.125 7.66 16.345 9.104 C 35.104 51.722 34.122 48.643 34.122 45.277 z" style="stroke: none; stroke-width: 1; stroke-dasharray: none; stroke-linecap: butt; stroke-linejoin: miter; stroke-miterlimit: 10; fill: rgb(74,144,226); fill-rule: nonzero; opacity: 1;" transform=" matrix(1 0 0 1 0 0) " stroke-linecap="round"/>
	<path d="M 45 0 C 20.147 0 0 20.147 0 45 c 0 24.853 20.147 45 45 45 s 45 -20.147 45 -45 C 90 20.147 69.853 0 45 0 z M 73.729 46.006 C 69.162 53.851 57.886 58.92 45 58.92 s -24.163 -5.069 -28.729 -12.914 c -0.362 -0.622 -0.362 -1.39 0 -2.012 C 20.837 36.149 32.114 31.08 45 31.08 s 24.162 5.069 28.729 12.915 C 74.091 44.616 74.091 45.384 73.729 46.006 z" style="stroke: none; stroke-width: 1; stroke-dasharray: none; stroke-linecap: butt; stroke-linejoin: miter; stroke-miterlimit: 10; fill: rgb(74,144,226); fill-rule: nonzero; opacity: 1;" transform=" matrix(1 0 0 1 0 0) " stroke-linecap="round"/>
	<path d="M 52.805 35.795 c 1.898 2.457 3.073 5.799 3.073 9.482 c 0 3.366 -0.982 6.445 -2.599 8.827 C 60.499 52.66 66.531 49.379 69.624 45 C 66.462 40.524 60.236 37.188 52.805 35.795 z" style="stroke: none; stroke-width: 1; stroke-dasharray: none; stroke-linecap: butt; stroke-linejoin: miter; stroke-miterlimit: 10; fill: rgb(74,144,226); fill-rule: nonzero; opacity: 1;" transform=" matrix(1 0 0 1 0 0) " stroke-linecap="round"/>
</g>
</svg>